<svg width="2553" height="1884" viewBox="0 0 2553 1884" fill="none" xmlns="http://www.w3.org/2000/svg">
<g opacity="0.45">
<path d="M979.495 469.486C978.074 727.304 1185.92 937.459 1443.74 938.88C1701.56 940.301 494.581 724.639 496.002 466.821C497.424 209.003 1706.71 6.6597 1448.89 5.23858C1191.07 3.81747 980.916 211.668 979.495 469.486Z" fill="url(#paint0_linear_343_1441)"/>
<path d="M1572.91 474.486C1574.33 732.304 1366.48 942.459 1108.66 943.88C850.844 945.301 2057.82 729.639 2056.4 471.821C2054.98 214.003 845.697 11.6597 1103.52 10.2386C1361.33 8.81747 1571.49 216.668 1572.91 474.486Z" fill="url(#paint1_linear_343_1441)"/>
<path d="M979.495 1408.49C978.074 1666.3 1185.92 1876.46 1443.74 1877.88C1701.56 1879.3 494.581 1663.64 496.002 1405.82C497.424 1148 1706.71 945.66 1448.89 944.239C1191.07 942.817 980.916 1150.67 979.495 1408.49Z" fill="url(#paint2_linear_343_1441)"/>
<path d="M1572.91 1413.49C1574.33 1671.3 1366.48 1881.46 1108.66 1882.88C850.844 1884.3 2057.82 1668.64 2056.4 1410.82C2054.98 1153 845.697 950.66 1103.52 949.239C1361.33 947.817 1571.49 1155.67 1572.91 1413.49Z" fill="url(#paint3_linear_343_1441)"/>
</g>
<path opacity="0.45" d="M641.933 1761.53C694.264 1777.57 744.09 1792.23 788.714 1805.32C828.847 1793.53 872.701 1780.56 918.47 1766.53C895.066 1787.15 869.579 1805.45 842.362 1821.09C965.991 1857.62 1028.21 1878.32 947.741 1877.88C891.042 1877.57 836.761 1867.16 786.589 1848.37C732.906 1870.31 674.208 1882.54 612.662 1882.88C529.685 1883.34 598.438 1861.31 729.802 1822.63C698.143 1805.63 668.678 1785.09 641.933 1761.53ZM1633.93 1761.53C1686.26 1777.57 1736.09 1792.23 1780.71 1805.32C1820.85 1793.53 1864.7 1780.56 1910.47 1766.53C1887.07 1787.15 1861.58 1805.45 1834.36 1821.09C1957.99 1857.62 2020.21 1878.32 1939.74 1877.88C1883.04 1877.57 1828.76 1867.16 1778.59 1848.37C1724.91 1870.31 1666.21 1882.54 1604.66 1882.88C1521.68 1883.34 1590.44 1861.31 1721.8 1822.63C1690.14 1805.63 1660.68 1785.09 1633.93 1761.53ZM1637.82 1057.2C1565.28 1119.67 1512.14 1204.08 1488.73 1300.2C1533.39 1335.53 1560.19 1372.57 1560.4 1410.82C1560.61 1449.35 1533.84 1486.94 1488.99 1523C1512.1 1616.86 1563.61 1699.6 1633.93 1761.53C1519.2 1726.37 1392.44 1684.56 1282.07 1637.96C1169.02 1686.57 1037.29 1730.12 918.47 1766.53C990.887 1702.76 1043.36 1616.92 1065.4 1519.59C1019.36 1483.04 991.786 1444.92 992.001 1405.82C992.209 1368.17 1018.17 1331.71 1061.56 1296.88C1037.17 1204.21 985.021 1122.86 914.587 1062.2C1030.52 1096.34 1158.74 1137.09 1270.18 1182.87C1384.35 1135.05 1517.68 1092.58 1637.82 1057.2ZM1906.59 1062.2C2191.91 1146.21 2551.63 1270.27 2552.4 1410.82C2553.18 1551.37 2194.85 1679.38 1910.47 1766.53C2008.27 1680.41 2069.68 1554.03 2068.91 1413.49C2068.13 1272.94 2005.33 1147.24 1906.59 1062.2ZM645.816 1057.2C547.074 1142.24 484.268 1267.94 483.493 1408.49C482.719 1549.03 544.136 1675.41 641.933 1761.53C357.557 1674.38 -0.773134 1546.37 0.00125298 1405.82C0.775953 1265.27 360.496 1141.21 645.816 1057.2ZM952.888 944.238C1036.81 944.7 965.282 966.45 830.565 1004.47C860.704 1020.65 888.864 1040.05 914.587 1062.2C863.641 1047.2 815.067 1033.48 771.331 1021.16C732.346 1032.16 689.972 1044.2 645.816 1057.2C668.116 1038 692.247 1020.86 717.912 1006.1C590.978 970.166 526.106 949.686 607.516 949.238C666.032 948.915 722.093 959.374 773.816 978.75C829.033 956.181 889.521 943.888 952.888 944.238ZM1944.89 944.238C2028.81 944.7 1957.28 966.45 1822.56 1004.47C1852.7 1020.65 1880.86 1040.05 1906.59 1062.2C1855.64 1047.2 1807.07 1033.48 1763.33 1021.16C1724.35 1032.16 1681.97 1044.2 1637.82 1057.2C1660.12 1038 1684.25 1020.86 1709.91 1006.1C1582.98 970.166 1518.11 949.686 1599.52 949.238C1658.03 948.915 1714.09 959.374 1765.82 978.75C1821.03 956.181 1881.52 943.888 1944.89 944.238ZM641.933 822.535C694.264 838.572 744.09 853.228 788.713 866.322C828.846 854.53 872.7 841.562 918.47 827.535C895.066 848.145 869.579 866.45 842.362 882.092C965.991 918.621 1028.21 939.323 947.741 938.879C891.042 938.567 836.761 928.157 786.589 909.368C732.906 931.305 674.208 943.54 612.662 943.879C529.685 944.337 598.438 922.31 729.802 883.626C698.143 866.629 668.678 846.087 641.933 822.535ZM1633.93 822.535C1686.26 838.572 1736.09 853.228 1780.71 866.322C1820.85 854.53 1864.7 841.562 1910.47 827.535C1887.07 848.145 1861.58 866.45 1834.36 882.092C1957.99 918.621 2020.21 939.323 1939.74 938.879C1883.04 938.567 1828.76 928.157 1778.59 909.368C1724.91 931.305 1666.21 943.54 1604.66 943.879C1521.68 944.337 1590.44 922.31 1721.8 883.626C1690.14 866.629 1660.68 846.087 1633.93 822.535ZM1637.82 118.203C1565.28 180.672 1512.14 265.08 1488.73 361.197C1533.39 396.533 1560.19 433.566 1560.4 471.821C1560.61 510.351 1533.84 547.938 1488.99 584.001C1512.1 677.861 1563.61 760.605 1633.93 822.535C1519.2 787.373 1392.44 745.561 1282.07 698.957C1169.02 747.573 1037.29 791.12 918.47 827.535C990.887 763.761 1043.36 677.916 1065.4 580.589C1019.36 544.042 991.786 505.917 992.001 466.821C992.209 429.172 1018.17 392.707 1061.56 357.877C1037.17 265.21 985.021 183.863 914.587 123.203C1030.52 157.34 1158.74 198.089 1270.18 243.871C1384.35 196.053 1517.68 153.578 1637.82 118.203ZM1906.59 123.203C2191.91 207.215 2551.63 331.275 2552.4 471.821C2553.18 612.367 2194.85 740.382 1910.47 827.535C2008.27 741.411 2069.68 615.031 2068.91 474.486C2068.13 333.94 2005.33 208.243 1906.59 123.203ZM645.816 118.203C547.074 203.243 484.268 328.94 483.493 469.486C482.719 610.031 544.136 736.411 641.933 822.535C357.557 735.382 -0.773101 607.367 0.00125298 466.821C0.775953 326.275 360.496 202.215 645.816 118.203ZM952.888 5.23771C1036.81 5.70036 965.282 27.4497 830.565 65.474C860.704 81.6532 888.864 101.049 914.587 123.203C863.641 108.201 815.067 94.4758 771.331 82.1625C732.346 93.1585 689.971 105.201 645.816 118.203C668.116 98.997 692.247 81.864 717.912 67.1029C590.978 31.1663 526.106 10.6865 607.516 10.2377C666.032 9.91519 722.093 20.3744 773.816 39.7504C829.033 17.1812 889.521 4.88843 952.888 5.23771ZM1944.89 5.23771C2028.81 5.70035 1957.28 27.4497 1822.56 65.474C1852.7 81.6532 1880.86 101.049 1906.59 123.203C1855.64 108.201 1807.07 94.4758 1763.33 82.1625C1724.35 93.1585 1681.97 105.201 1637.82 118.203C1660.12 98.997 1684.25 81.864 1709.91 67.1029C1582.98 31.1663 1518.11 10.6865 1599.52 10.2377C1658.03 9.91518 1714.09 20.3744 1765.82 39.7504C1821.03 17.1812 1881.52 4.88843 1944.89 5.23771Z" fill="url(#paint4_linear_343_1441)"/>
<defs>
<linearGradient id="paint0_linear_343_1441" x1="1461.46" y1="466.101" x2="456.328" y2="462.914" gradientUnits="userSpaceOnUse">
<stop offset="0.9999" stop-color="#B7AEA2"/>
<stop offset="1" stop-color="#F6F4E7"/>
</linearGradient>
<linearGradient id="paint1_linear_343_1441" x1="1090.95" y1="471.101" x2="2096.08" y2="467.914" gradientUnits="userSpaceOnUse">
<stop offset="0.9999" stop-color="#B7AEA2"/>
<stop offset="1" stop-color="#F6F4E7"/>
</linearGradient>
<linearGradient id="paint2_linear_343_1441" x1="1461.46" y1="1405.1" x2="456.328" y2="1401.91" gradientUnits="userSpaceOnUse">
<stop offset="0.9999" stop-color="#B7AEA2"/>
<stop offset="1" stop-color="#F6F4E7"/>
</linearGradient>
<linearGradient id="paint3_linear_343_1441" x1="1090.95" y1="1410.1" x2="2096.08" y2="1406.91" gradientUnits="userSpaceOnUse">
<stop offset="0.9999" stop-color="#B7AEA2"/>
<stop offset="1" stop-color="#F6F4E7"/>
</linearGradient>
<linearGradient id="paint4_linear_343_1441" x1="594.946" y1="1410.1" x2="1600.08" y2="1406.91" gradientUnits="userSpaceOnUse">
<stop offset="0.0240385" stop-color="#F6F4E7"/>
</linearGradient>
</defs>
</svg>
